<?xml version="1.0" standalone="no"?>
<!DOCTYPE svg PUBLIC "-//W3C//DTD SVG 20010904//EN"
 "http://www.w3.org/TR/2001/REC-SVG-20010904/DTD/svg10.dtd">
<svg version="1.0" xmlns="http://www.w3.org/2000/svg"
 width="310.000000pt" height="310.000000pt" viewBox="0 0 310.000000 310.000000"
 preserveAspectRatio="xMidYMid meet">
<metadata>
Created by potrace 1.11, written by Peter Selinger 2001-2013
</metadata>
<g transform="translate(0.000000,310.000000) scale(0.100000,-0.100000)"
fill="#000000" stroke="none">
<path d="M1408 2985 c-2 -2 -32 -6 -68 -10 -36 -4 -68 -9 -71 -11 -3 -2 -21
-6 -39 -9 -18 -3 -36 -8 -40 -10 -4 -3 -7 -80 -8 -172 -1 -454 101 -643 393
-724 116 -32 292 -32 394 0 106 32 207 83 333 167 123 83 338 243 338 253 0
10 -157 164 -205 202 -201 158 -438 261 -690 300 -62 10 -330 20 -337 14z
m447 -139 c76 -35 130 -88 167 -164 30 -60 33 -76 33 -152 0 -78 -3 -92 -34
-153 -40 -79 -91 -129 -170 -166 -47 -22 -70 -26 -141 -26 -71 0 -94 4 -140
26 -70 34 -112 70 -149 128 -105 167 -58 376 109 487 84 56 228 64 325 20z"/>
<path d="M678 2709 c-178 -132 -341 -325 -441 -524 -45 -90 -95 -218 -103
-265 -3 -14 -9 -42 -15 -62 -31 -117 -44 -392 -25 -515 38 -245 121 -458 251
-644 71 -101 243 -275 342 -347 40 -29 73 -51 74 -50 1 5 4 2468 2 2468 -1 0
-39 -28 -85 -61z"/>
<path d="M2745 2036 c-163 -70 -205 -92 -313 -159 -111 -69 -128 -83 -210
-167 -85 -88 -132 -183 -133 -273 -2 -110 38 -216 127 -337 53 -73 211 -234
324 -331 41 -35 88 -76 104 -91 37 -33 39 -31 104 70 87 136 144 265 183 412
12 47 24 96 26 110 2 14 7 48 11 75 9 63 9 314 0 380 -15 116 -75 336 -96 357
-4 3 -61 -17 -127 -46z"/>
<path d="M1403 831 c-94 -27 -160 -82 -199 -167 -46 -97 -54 -182 -46 -475 2
-62 5 -65 71 -75 20 -3 39 -8 42 -10 40 -24 448 -24 520 0 8 3 28 7 44 10 106
17 298 91 423 164 l83 49 -78 84 c-293 313 -502 440 -723 438 -41 0 -103 -8
-137 -18z"/>
</g>
</svg>
