<svg id="255bc878-668e-44a8-83f4-6d4947be7606" data-name="Camada 1" xmlns="http://www.w3.org/2000/svg" viewBox="0 0 844.25 189.19"><defs><style>.c4f22a14-0b9c-4b16-bbed-43c73955ee05{fill:#454544;}.e8166bf9-aa46-4fd6-89f2-56f2d3469c75{fill:#ff2661;}</style></defs><title>gosites</title><path class="c4f22a14-0b9c-4b16-bbed-43c73955ee05" d="M436.13,151.35a58.09,58.09,0,0,0,35.47,11.82c18.92,0,37.84-11.82,37.84-30.74,0-11.82-7.09-21.28-23.65-30.74-21.28-11.82-33.11-26-33.11-42.57,0-30.74,26-49.66,56.76-49.66,16.55,0,28.38,4.73,35.47,9.46l-7.09,16.55c-4.73-2.36-16.55-7.09-28.38-7.09-21.28,0-33.11,14.19-33.11,28.38s9.46,21.28,26,30.74c21.28,11.82,33.11,23.65,33.11,44.93,0,28.38-23.65,52-61.49,52-16.55,0-33.11-4.73-40.2-11.82Z" transform="translate(-1)"/><path class="c4f22a14-0b9c-4b16-bbed-43c73955ee05" d="M537.82,177.36L561.47,56.76h21.28L559.11,177.36H537.82Zm26-156.08c0-7.09,7.09-14.19,14.19-14.19s11.82,4.73,11.82,14.19c0,7.09-7.09,14.19-14.19,14.19s-11.82-4.73-11.82-14.19" transform="translate(-1)"/><path class="c4f22a14-0b9c-4b16-bbed-43c73955ee05" d="M641.88,23.65l-7.09,33.11h28.38L660.8,73.31H632.42l-11.82,59.12c0,7.09-2.36,14.19-2.36,18.92,0,7.09,2.36,11.82,11.82,11.82h9.46v16.55c-4.73,2.36-9.46,2.36-16.55,2.36-18.92,0-26-11.82-26-23.65,0-7.09,0-14.19,2.36-23.65l11.82-61.49H594.58l2.36-16.55H613.5l4.73-28.38Z" transform="translate(-1)"/><path class="c4f22a14-0b9c-4b16-bbed-43c73955ee05" d="M741.2,170.27a91.46,91.46,0,0,1-40.2,9.46c-33.11,0-47.3-21.28-47.3-49.66,0-37.84,26-78,66.22-78,23.65,0,35.47,14.19,35.47,30.74,0,30.74-35.47,40.2-80.41,40.2,0,4.73,0,16.55,2.36,23.65,4.73,11.82,14.19,16.55,26,16.55,14.19,0,26-4.73,33.11-9.46ZM719.92,70.95c-18.92,0-35.47,18.92-40.2,37.84,33.11,0,59.12-4.73,59.12-23.65-2.36-9.46-9.46-14.19-18.92-14.19" transform="translate(-1)"/><path class="c4f22a14-0b9c-4b16-bbed-43c73955ee05" d="M762.49,156.08c4.73,2.36,16.55,7.09,26,7.09,14.19,0,23.65-9.46,23.65-18.92s-4.73-14.19-16.55-21.28c-14.19-7.09-21.28-18.92-21.28-30.74,0-21.28,18.92-37.84,44.93-37.84,11.82,0,21.28,2.36,26,7.09L840.52,78a47.22,47.22,0,0,0-21.28-4.73c-11.82,0-21.28,7.09-21.28,18.92,0,9.46,4.73,14.19,16.55,21.28,14.19,7.09,23.65,18.92,23.65,30.74,0,26-21.28,40.2-47.3,40.2-14.19,0-23.65-4.73-30.74-7.09Z" transform="translate(-1)"/><path class="e8166bf9-aa46-4fd6-89f2-56f2d3469c75" d="M166.54,177.36c-16.55,4.73-44.93,11.82-70.95,11.82s-49.66-7.09-66.22-18.92S1,137.16,1,108.78C1,73.31,15.19,47.3,41.2,28.38c23.65-16.55,54.39-26,89.86-26,26,0,49.66,4.73,56.76,9.46L173.64,52c-9.46-4.73-26-9.46-44.93-9.46S93.23,47.3,81.41,54.39c-16.55,9.46-26,28.38-26,49.66,0,30.74,21.28,44.93,49.66,44.93,9.46,0,16.55-2.36,18.92-2.36l4.73-28.38H100.32l7.09-37.84h75.68Z" transform="translate(-1)"/><path class="e8166bf9-aa46-4fd6-89f2-56f2d3469c75" d="M254,189.19c-49.66,0-85.13-30.74-85.13-82.77,0-30.74,11.82-59.12,30.74-78S246.95,0,277.69,0c49.66,0,85.13,28.38,85.13,82.77,0,30.74-11.82,59.12-30.74,75.68-18.92,18.92-44.93,30.74-78,30.74h0Zm7.09-40.2c11.82,0,23.65-4.73,30.74-14.19C303.7,123,310.8,104.05,310.8,85.13c0-26-9.46-47.3-37.84-47.3-11.82,0-23.65,4.73-33.11,14.19C228,63.85,220.93,82.77,220.93,101.69c0,30.74,14.19,47.3,40.2,47.3h0Z" transform="translate(-1)"/><path class="e8166bf9-aa46-4fd6-89f2-56f2d3469c75" d="M381.74,189.19c-14.19,0-26-9.46-26-26,0-18.92,11.82-33.11,33.11-33.11,14.19,0,26,9.46,26,26,0,21.28-14.19,33.11-33.11,33.11h0ZM374.65,123L388.84,2.36H438.5L407.75,123H374.65Z" transform="translate(-1)"/></svg>