<svg id="1ffd396b-09b4-47eb-9c56-7e41fbe33853" data-name="Camada 1" xmlns="http://www.w3.org/2000/svg" viewBox="0 0 322.44 322.44"><defs><style>.\31 12c1a90-f7a8-4aca-b2ed-0016652689d4{fill:#51b7a6;}.b18714c3-504b-44ba-9c1a-d140cc953210{fill:#88c9b3;}</style></defs><title>icone-telefone</title><path class="112c1a90-f7a8-4aca-b2ed-0016652689d4" d="M309.52,25.12L322.44,52.4,240.6,107,213.89,88l0.39-.55Zm0,0"/><path class="b18714c3-504b-44ba-9c1a-d140cc953210" d="M309.52,25.12l-95.23,62.3-0.39.55-18-12.81C174,87.59,150,106.82,128.43,128.43S87.59,174,75.17,195.87L88,213.9l-0.55.39L25.13,309.51,0,248.5l16-27.17C62,143.1,143.1,62,221.33,16L248.5,0Zm0,0"/><path class="112c1a90-f7a8-4aca-b2ed-0016652689d4" d="M88,213.9l19,26.7L52.41,322.44,25.13,309.51l62.31-95.22Zm0,0"/></svg>