<svg id="63a1fc22-d6c1-4733-a285-6bb012912d01" data-name="Camada 1" xmlns="http://www.w3.org/2000/svg" viewBox="0 0 72 72"><defs><style>.\31 a14b6a1-c9de-4562-a784-6a87d519d1e0{fill:#199436;fill-rule:evenodd;}</style></defs><title>icone-whatsapp</title><path class="1a14b6a1-c9de-4562-a784-6a87d519d1e0" d="M72,35.07A35.4,35.4,0,0,1,19.57,65.78L0,72,6.38,53.18A34.7,34.7,0,0,1,1.31,35.07a35.35,35.35,0,0,1,70.69,0h0ZM36.66,5.59A29.63,29.63,0,0,0,6.94,35.07,29.18,29.18,0,0,0,12.6,52.36L8.89,63.31,20.3,59.68A29.75,29.75,0,0,0,66.37,35.07,29.64,29.64,0,0,0,36.66,5.59h0ZM54.5,43.15a4.42,4.42,0,0,0-1.66-1c-0.87-.43-5.13-2.51-5.92-2.8s-1.37-.43-1.95.43-2.24,2.8-2.75,3.37a1.33,1.33,0,0,1-1.87.21,23.7,23.7,0,0,1-7-4.26,26.15,26.15,0,0,1-4.82-6,1.25,1.25,0,0,1,.38-1.75c0.39-.39.87-1,1.3-1.5a5.89,5.89,0,0,0,.87-1.44,1.56,1.56,0,0,0-.07-1.5c-0.22-.43-1.95-4.66-2.67-6.38s-1.44-1.43-1.95-1.43-1.08-.07-1.66-0.07a3.19,3.19,0,0,0-2.31,1.08,9.61,9.61,0,0,0-3,7.17c0,4.23,3.1,8.32,3.54,8.89s6,9.54,14.8,13,8.81,2.29,10.4,2.15,5.12-2.08,5.85-4.09a7.14,7.14,0,0,0,.51-4.09h0Zm0,0"/></svg>