<svg id="dfa55222-058c-4061-a0a6-158a0325d250" data-name="Camada 1" xmlns="http://www.w3.org/2000/svg" xmlns:xlink="http://www.w3.org/1999/xlink" viewBox="0 0 396 351.93"><defs><style>.c1fd1a8d-f4b4-4863-bc7e-4e2310a4681f{fill:none;}.\33 4c02812-bd88-4715-887e-5507cea82951{clip-path:url(#df11e504-55b6-4b09-a13e-bf307a2c8d2a);}.e8c9e7d9-06cb-4d1a-ae2e-22229018b619{fill:#d1e7f8;}.b2a0b94d-79a3-462e-833f-ba1b25357d5e{fill:#b3d8f4;}.\39 86c461e-5b78-4949-9665-f32b6c3228f5{fill:#96c8ef;}.\31 9f5f609-8ac7-45f3-9ebe-6dead07bb2cc{fill:#165c92;}.\34 10b989b-4aed-4e70-adbb-83a3003e3deb{fill:#1e81ce;}</style><clipPath id="df11e504-55b6-4b09-a13e-bf307a2c8d2a" transform="translate(0 0.09)"><rect class="c1fd1a8d-f4b4-4863-bc7e-4e2310a4681f" width="395.76" height="352.8"/></clipPath></defs><title>icone-cursos</title><g class="34c02812-bd88-4715-887e-5507cea82951"><path class="e8c9e7d9-06cb-4d1a-ae2e-22229018b619" d="M198,284.42V23.32c-10.69-11.7-42.74-23.4-71.1-23.4C78.76-.09,33.2,29.53,0,29.53v261.1c33.2,0,78.76-29.62,126.89-29.62,28.36,0,60.42,11.7,71.1,23.41h0Zm0,0" transform="translate(0 0.09)"/><path class="b2a0b94d-79a3-462e-833f-ba1b25357d5e" d="M331.81,12.57V136.66L297,118l-34.81,18.68V0.14C235.71,1.8,207.82,12.55,198,23.32v261.1C208.69,272.71,240.74,261,269.11,261c48.14,0,93.69,29.62,126.89,29.62V29.53c-18.21,0-40.15-8.91-64.19-17h0Zm0,0" transform="translate(0 0.09)"/><path class="b2a0b94d-79a3-462e-833f-ba1b25357d5e" d="M126.89,261C78.76,261,33.2,290.63,0,290.63v61.21c33.2,0,78.76-29.62,126.89-29.62,28.36,0,46.14,11.71,56.82,23.4H198V284.41c-10.69-11.7-42.74-23.4-71.1-23.4h0Zm0,0" transform="translate(0 0.09)"/><path class="986c461e-5b78-4949-9665-f32b6c3228f5" d="M198,284.42v61.21h14.28c10.68-11.7,28.46-23.4,56.82-23.4,48.14,0,93.69,29.62,126.89,29.62V290.63c-33.2,0-78.75-29.62-126.89-29.62-28.36,0-60.42,11.7-71.11,23.41h0Zm0,0" transform="translate(0 0.09)"/><path class="19f5f609-8ac7-45f3-9ebe-6dead07bb2cc" d="M331.81,136.66V12.57A286.27,286.27,0,0,0,297,2.87V118Zm0,0" transform="translate(0 0.09)"/><path class="410b989b-4aed-4e70-adbb-83a3003e3deb" d="M297,118V2.87a142.41,142.41,0,0,0-27.89-3q-3.43,0-6.92.23V136.66Zm0,0" transform="translate(0 0.09)"/></g></svg>