<svg id="5c106c69-ed6b-4ff5-90d6-12948e49f22e" data-name="Camada 1" xmlns="http://www.w3.org/2000/svg" viewBox="0 0 121.25 117.94"><defs><style>.b8612188-939d-4413-b1f8-f5f0c8137b66{fill:#ffb900;}</style></defs><title>icone-redes-sociais</title><path class="b8612188-939d-4413-b1f8-f5f0c8137b66" d="M87.4,98.74a5.81,5.81,0,0,1-2.19-.43L36.5,78.38a5.79,5.79,0,1,1,4.39-10.72L89.6,87.59a5.79,5.79,0,0,1-2.2,11.15h0Zm0,0"/><path class="b8612188-939d-4413-b1f8-f5f0c8137b66" d="M38.7,50.78A5.79,5.79,0,0,1,36.55,39.6l42.81-17a5.79,5.79,0,1,1,4.29,10.76l-42.81,17a5.8,5.8,0,0,1-2.14.41h0Zm0,0"/><path class="b8612188-939d-4413-b1f8-f5f0c8137b66" d="M87.4,112.14a19.82,19.82,0,1,0,0-28,19.82,19.82,0,0,0,0,28h0Zm0,0"/><path class="b8612188-939d-4413-b1f8-f5f0c8137b66" d="M81.51,33.84a19.82,19.82,0,1,0,0-28,19.83,19.83,0,0,0,0,28h0Zm0,0"/><path class="b8612188-939d-4413-b1f8-f5f0c8137b66" d="M8.09,78.54a27.63,27.63,0,1,0,0-39.07,27.63,27.63,0,0,0,0,39.07h0Zm0,0"/></svg>