<svg id="616876ec-2019-4440-b230-a058ede19ac2" data-name="Camada 1" xmlns="http://www.w3.org/2000/svg" xmlns:xlink="http://www.w3.org/1999/xlink" viewBox="0 0 372.48 411.23"><defs><style>.e0196459-052c-4226-a969-c7d54cc04021{fill:none;}.\34 0722423-cda9-48c5-9cf4-81029768a594{fill:#dec8ae;}.\33 2912d0a-bdfb-4773-83f0-0bd92c8f5d8b{fill:#ffe1b2;}.e904ac4d-802e-46ae-8d8f-d76ff4976019{fill:#ffb980;}.\37 77a701f-b6d7-4a3b-8e18-581d1a767029{fill:#fdc88e;}.\39 190d17e-c6fc-4810-8a2e-1d096407d238{fill:#f8ab6b;}.\37 ad370a1-2f48-4ca0-a8ef-d8c1c28f9125{fill:#f2bc8b;}.e67be78f-24e0-4ddc-9de9-182cab8b5bfc{fill:#fdd7ad;}.\37 b0b064f-e73d-4ef1-98d0-9d0ad6e99dfc{fill:#e64c3c;}.\34 fa5ee3a-62aa-4163-8f4d-e27721ef49e4{clip-path:url(#60f969ad-9d5c-4ffb-a654-7fb9d6ddd8b8);}.\32 dd8167c-80d0-42fc-b7af-8917ca142745{fill:#c03a2b;}.be070b05-4d4e-4b82-aaaf-d00ed637f811{fill:#d25627;}.acf1b8f6-eb1c-45a1-b22b-b717c7154f17{fill:#2c2f38;}</style><clipPath id="60f969ad-9d5c-4ffb-a654-7fb9d6ddd8b8" transform="translate(-0.01 -0.07)"><rect class="e0196459-052c-4226-a969-c7d54cc04021" x="0.8" y="5.63" width="89.25" height="87.3" transform="translate(-20.11 35.25) rotate(-35.25)"/></clipPath></defs><title>icone-saude-mental</title><path class="40722423-cda9-48c5-9cf4-81029768a594" d="M130.06,322c-1.39-1.07-12.4-9.4-43-11.43-1.68-.14-3.37-1.33-4.87-2.32l-1.09-.74a20.74,20.74,0,0,1-4.22-3.57c-2.33-2.79-5-5.14-7.2-8.25C54.88,275,40.32,270.81,38.15,270c-2.89-1.39-4.87-1.79-5.51-3.77-0.26-.92-2.78-25-3.23-29-1.25-11.59-2.49-20.18-9.14-22.52a3.44,3.44,0,0,0-4.19.95c-1.52,1.59-2.41,10-2.85,15.33,0,0-2.5,31.11-2.21,41.9s19,53.88,29,63.93,56.29,36.36,56.29,36.36c1.66,1.39,10.91,8.5,10.91,17.84v10.52s-1.32,9.74,9.35,9.74,25.47,0,36,0,8.48-9.52,8.48-12.85c0-2.37,0-4.26,0-5.16v-0.57c0.13-3.44.71-6.85,1.12-10.27,1.17-3.91.24-11.3-.31-14.16-6.26-27.89-29.27-44.37-31.78-46.32h0Zm0,0" transform="translate(-0.01 -0.07)"/><path class="40722423-cda9-48c5-9cf4-81029768a594" d="M337,231c-0.43-5.32-1.33-13.74-2.84-15.33a3.44,3.44,0,0,0-4.2-.95c-6.64,2.34-7.88,10.93-9.13,22.52-0.45,4-3,28.08-3.23,29-0.64,2-2.62,2.39-5.51,3.77-2.18.83-16.74,5-31.58,25.68-2.22,3.11-4.87,5.45-7.2,8.25a20.74,20.74,0,0,1-4.22,3.57l-1.09.74c-1.49,1-3.19,2.18-4.87,2.32-30.55,2-41.56,10.37-42.95,11.43-2.51,1.95-25.52,18.42-31.78,46.32-0.55,2.87-1.48,10.25-.31,14.16,0.41,3.41,1,6.83,1.12,10.27v0.57c0,0.9,0,2.79,0,5.16,0,3.33-2,12.85,8.48,12.85s25.33,0,36,0,9.35-9.74,9.35-9.74V391c0-9.34,9.25-16.45,10.91-17.84,0,0,49.91-28.78,56.28-36.36s27.74-53.41,29-63.93S337,231,337,231h0Zm0,0" transform="translate(-0.01 -0.07)"/><path class="32912d0a-bdfb-4773-83f0-0bd92c8f5d8b" d="M176.13,77a27.31,27.31,0,0,0-48.08.47,27.4,27.4,0,0,0-20.24,26.4v0.07A17.07,17.07,0,0,0,101,117.51a14.85,14.85,0,0,0,.1,1.71A30.76,30.76,0,0,0,87.3,144.85a30.4,30.4,0,0,0,5,16.76,16.91,16.91,0,0,0-1.59,7.15,17.09,17.09,0,0,0,.35,3.46A27.32,27.32,0,0,0,95.89,222a19.94,19.94,0,0,0-1.76,8.21,20.5,20.5,0,0,0,14.32,19.53,27.38,27.38,0,0,0,26.67,21.47,26.92,26.92,0,0,0,5.88-.65,20.42,20.42,0,0,0,35.12,1.71V77Zm0,0" transform="translate(-0.01 -0.07)"/><path class="e904ac4d-802e-46ae-8d8f-d76ff4976019" d="M179.55,172.18a3.41,3.41,0,0,1-3.42-3.42,17.09,17.09,0,0,0-26.62-14.17,3.42,3.42,0,0,1-4.18-.28,10.12,10.12,0,0,0-6.78-2.63,3.42,3.42,0,0,1,0-6.83,16.92,16.92,0,0,1,9.27,2.79A23.92,23.92,0,0,1,183,168.76a3.41,3.41,0,0,1-3.42,3.42h0Zm0,0" transform="translate(-0.01 -0.07)"/><path class="e904ac4d-802e-46ae-8d8f-d76ff4976019" d="M118.05,114.1a30.56,30.56,0,0,1,21.53,8.8,3.42,3.42,0,0,0,4.78-4.88,37.43,37.43,0,0,0-41.92-7.31,16.78,16.78,0,0,0-1.48,6.81,14.85,14.85,0,0,0,.1,1.71l-0.11.09a30.58,30.58,0,0,1,17.1-5.21h0Zm0,0" transform="translate(-0.01 -0.07)"/><path class="e904ac4d-802e-46ae-8d8f-d76ff4976019" d="M159,216.59a3.42,3.42,0,0,0-6.83,0,13.62,13.62,0,0,1-26.76,3.64,3.42,3.42,0,0,0-5.27-1.87,27.14,27.14,0,0,1-24.29,3.69,19.94,19.94,0,0,0-1.67,6.66,34.08,34.08,0,0,0,26.3-2.52,20.45,20.45,0,0,0,38.53-9.6h0Zm0,0" transform="translate(-0.01 -0.07)"/><path class="777a701f-b6d7-4a3b-8e18-581d1a767029" d="M275.2,196.09a27.26,27.26,0,0,0-14-23.87,17.13,17.13,0,0,0,.35-3.46,16.91,16.91,0,0,0-1.59-7.15,30.39,30.39,0,0,0,5-16.76,30.76,30.76,0,0,0-13.77-25.63,14.84,14.84,0,0,0,.1-1.71,17.07,17.07,0,0,0-6.83-13.59v-0.07a27.41,27.41,0,0,0-20.25-26.4A27.3,27.3,0,0,0,176.13,77V272.31a20.41,20.41,0,0,0,35.12-1.71,26.93,26.93,0,0,0,5.88.65,27.38,27.38,0,0,0,26.67-21.47,20.5,20.5,0,0,0,14.32-19.53,20,20,0,0,0-1.75-8.21,27.41,27.41,0,0,0,18.84-26h0Zm0,0" transform="translate(-0.01 -0.07)"/><path class="9190d17e-c6fc-4810-8a2e-1d096407d238" d="M183,127.42c0,0.11,0,.23,0,0.34a20.5,20.5,0,0,0,41,0,3.42,3.42,0,1,0-6.83,0,13.67,13.67,0,0,1-27.33,0,13.51,13.51,0,0,1,.28-2.76,3.43,3.43,0,0,0-.73-2.89,3.3,3.3,0,0,0-2.71-1.22c-0.19,0-.38,0-0.26,0a10.26,10.26,0,0,1-10.25-10.25v13.58a17,17,0,0,0,6.84,3.15h0Zm0,0" transform="translate(-0.01 -0.07)"/><path class="9190d17e-c6fc-4810-8a2e-1d096407d238" d="M193.21,202.92a23.82,23.82,0,0,0,11.22-2.79,16.92,16.92,0,0,0,9.27,2.79,3.42,3.42,0,0,0,0-6.83,10.12,10.12,0,0,1-6.78-2.63,3.42,3.42,0,0,0-4.18-.28A17.08,17.08,0,0,1,176.13,179v16.7a23.83,23.83,0,0,0,17.08,7.21h0Zm0,0" transform="translate(-0.01 -0.07)"/><path class="9190d17e-c6fc-4810-8a2e-1d096407d238" d="M251.19,119.22a14.84,14.84,0,0,0,.1-1.71,16.78,16.78,0,0,0-1.48-6.81,37.29,37.29,0,0,0-15.61-3.44,3.42,3.42,0,0,0,0,6.83,30.58,30.58,0,0,1,17.1,5.21l-0.11-.09h0Zm0,0" transform="translate(-0.01 -0.07)"/><path class="9190d17e-c6fc-4810-8a2e-1d096407d238" d="M258,228.71a19.93,19.93,0,0,0-1.67-6.66,27.11,27.11,0,0,1-24.57-3.9,3.42,3.42,0,0,0-5.25,1.66A15.36,15.36,0,0,1,212,230.25a3.42,3.42,0,1,0,0,6.83,22.19,22.19,0,0,0,19.26-11.17A34.06,34.06,0,0,0,258,228.71h0Zm0,0" transform="translate(-0.01 -0.07)"/><path class="7ad370a1-2f48-4ca0-a8ef-d8c1c28f9125" d="M21.79,80.64c-4,2.82-7.94,1.28-10.47-2.3s-2.65-7.81,1.33-10.63Zm0,0" transform="translate(-0.01 -0.07)"/><path class="7ad370a1-2f48-4ca0-a8ef-d8c1c28f9125" d="M82.86,37.48c4-2.81,3.85-7.06,1.32-10.64s-6.48-5.11-10.46-2.3Zm0,0" transform="translate(-0.01 -0.07)"/><path class="e67be78f-24e0-4ddc-9de9-182cab8b5bfc" d="M49.14,13.55l-0.23.16a12.24,12.24,0,0,0,5.49,4.24,1.7,1.7,0,0,1,.53,2.93c-4,3.13-11.77,8.35-18.26,7.57l-3-4.26-8,5.52,3.07,4.35C27.27,40.44,20,45.84,15.76,48.55a1.69,1.69,0,0,1-2.58-1.47A12.47,12.47,0,0,0,10.66,40l-0.14.1A38.51,38.51,0,1,0,49.14,13.55h0Zm0,0" transform="translate(-0.01 -0.07)"/><path class="7ad370a1-2f48-4ca0-a8ef-d8c1c28f9125" d="M37.09,53a1.61,1.61,0,0,1-1.21.27,9.16,9.16,0,0,0-10.57,7.47,1.63,1.63,0,1,1-3.21-.55A12.42,12.42,0,0,1,36.43,50.09,1.63,1.63,0,0,1,37.09,53h0Zm0,0" transform="translate(-0.01 -0.07)"/><path class="7ad370a1-2f48-4ca0-a8ef-d8c1c28f9125" d="M63.66,34.25a1.62,1.62,0,0,1-1.22.27A9.14,9.14,0,0,0,51.88,42a1.63,1.63,0,0,1-3.2-.56A12.41,12.41,0,0,1,63,31.32a1.63,1.63,0,0,1,.66,2.93h0Zm0,0" transform="translate(-0.01 -0.07)"/><path class="7ad370a1-2f48-4ca0-a8ef-d8c1c28f9125" d="M60.71,71.46a12.21,12.21,0,0,1-9.12,2.07,1.63,1.63,0,1,1,.55-3.21A9,9,0,0,0,62.5,63a1.63,1.63,0,0,1,3.2.54,12.19,12.19,0,0,1-5,7.92h0Zm0,0" transform="translate(-0.01 -0.07)"/><path class="7b0b064f-e73d-4ef1-98d0-9d0ad6e99dfc" d="M12,30.85c-4.14,1-7.91,1.1-10.08.51,2.76,2.22,6.46,5.46,8.43,8.24a12.62,12.62,0,0,1,2.82,7.47,1.69,1.69,0,0,0,2.58,1.47c4.28-2.7,11.51-8.1,12.94-14.49l-6.3-8.91C22.28,27,17.83,29.5,12,30.85h0Zm0,0" transform="translate(-0.01 -0.07)"/><g class="4fa5ee3a-62aa-4163-8f4d-e27721ef49e4"><path class="7b0b064f-e73d-4ef1-98d0-9d0ad6e99dfc" d="M48.29,12.79c-2.09-3-4-7.94-5.16-11.31A0.7,0.7,0,0,0,42.65,1c0.62,1.89-.84,6.27-3.73,10.79-2.77,4.34-6.28,7.66-8.27,8.11l6,8.51c6.49,0.78,14.28-4.44,18.26-7.58a1.69,1.69,0,0,0-.52-2.93,12.66,12.66,0,0,1-6.11-5.15h0Zm0,0" transform="translate(-0.01 -0.07)"/><path class="2dd8167c-80d0-42fc-b7af-8917ca142745" d="M22.25,24.94a3.15,3.15,0,0,1-.41-0.87c-1.55-1.22-6.19-1.31-11.43-.1C4.24,25.39-.4,28.09,0,30s5.8,2.29,12,.86C17.83,29.5,22.28,27,22.4,25.14Zm0,0" transform="translate(-0.01 -0.07)"/><path class="2dd8167c-80d0-42fc-b7af-8917ca142745" d="M42.12,0.26C40.47-.8,36.37,2.68,33,8c-2.54,4-4,7.85-3.87,10a2.93,2.93,0,0,1,1.4,1.07l0.44,0.62c2-.45,5.23-3.56,8-7.9C42.33,6.49,43.76,1.31,42.12.26h0Zm0,0" transform="translate(-0.01 -0.07)"/></g><path class="be070b05-4d4e-4b82-aaaf-d00ed637f811" d="M24.11,18l-0.78.55a6.21,6.21,0,0,0-1.48,8.64l4,5.72a6.2,6.2,0,0,0,8.63,1.49l0.78-.55a5.69,5.69,0,0,0,1.36-8.21l-4-5.72c-2.1-3-5.84-3.81-8.52-1.91h0Zm0,0" transform="translate(-0.01 -0.07)"/><path class="7ad370a1-2f48-4ca0-a8ef-d8c1c28f9125" d="M303.35,152.93c-3.86-2-4.22-5.82-2.4-9.27s5.16-5.28,9-3.24Zm0,0" transform="translate(-0.01 -0.07)"/><path class="7ad370a1-2f48-4ca0-a8ef-d8c1c28f9125" d="M362.42,184.16c3.85,2,7.18.21,9-3.24s1.46-7.23-2.39-9.27Zm0,0" transform="translate(-0.01 -0.07)"/><path class="e67be78f-24e0-4ddc-9de9-182cab8b5bfc" d="M366.84,177.63a34.4,34.4,0,1,1-14.34-46.49,34.4,34.4,0,0,1,14.34,46.49h0Zm0,0" transform="translate(-0.01 -0.07)"/><path class="7ad370a1-2f48-4ca0-a8ef-d8c1c28f9125" d="M331.54,154a1.49,1.49,0,0,1-.71-0.86,8.17,8.17,0,0,0-10.21-5.4,1.45,1.45,0,1,1-.86-2.78,11.09,11.09,0,0,1,13.85,7.32,1.45,1.45,0,0,1-2.07,1.71h0Zm0,0" transform="translate(-0.01 -0.07)"/><path class="7ad370a1-2f48-4ca0-a8ef-d8c1c28f9125" d="M357.23,167.56a1.48,1.48,0,0,1-.71-0.86,8.17,8.17,0,0,0-10.22-5.4,1.45,1.45,0,0,1-.85-2.78,11.07,11.07,0,0,1,13.85,7.32,1.45,1.45,0,0,1-2.07,1.71h0Zm0,0" transform="translate(-0.01 -0.07)"/><path class="7ad370a1-2f48-4ca0-a8ef-d8c1c28f9125" d="M326.39,180.23a10.9,10.9,0,0,1-5.34-6.43,1.45,1.45,0,1,1,2.78-.86,8,8,0,0,0,10,5.3,1.45,1.45,0,0,1,.85,2.78,10.88,10.88,0,0,1-8.32-.79h0Zm0,0" transform="translate(-0.01 -0.07)"/><path class="acf1b8f6-eb1c-45a1-b22b-b717c7154f17" d="M343.25,136.5a1.46,1.46,0,0,1-.61-2l5.43-10.27a1.45,1.45,0,0,1,2.57,1.36l-5.43,10.27a1.46,1.46,0,0,1-2,.61h0Zm0,0" transform="translate(-0.01 -0.07)"/><path class="acf1b8f6-eb1c-45a1-b22b-b717c7154f17" d="M353.52,141.93a1.45,1.45,0,0,1-.6-2l5.43-10.27a1.45,1.45,0,1,1,2.56,1.36l-5.43,10.27a1.46,1.46,0,0,1-2,.61h0Zm0,0" transform="translate(-0.01 -0.07)"/><path class="acf1b8f6-eb1c-45a1-b22b-b717c7154f17" d="M348.39,139.21a1.46,1.46,0,0,1-.61-2l8.14-15.4a1.45,1.45,0,1,1,2.57,1.36l-8.14,15.4a1.46,1.46,0,0,1-2,.61h0Zm0,0" transform="translate(-0.01 -0.07)"/></svg>