<svg id="c3bedd3b-97ec-4ab2-af38-5bed8a52c410" data-name="Camada 1" xmlns="http://www.w3.org/2000/svg" viewBox="0 0 376 332"><defs><style>.\37 70fbded-78ff-4ff6-a54f-c34735946b3f{fill:#ff6e1d;}.\37 48c915a-fb4e-4299-96aa-9ba37fa6b560{fill:#ffcc75;}.\38 a4e515c-e147-4ea8-9957-66e07479f5e0{fill:#fff;}.\36 3a8cc51-7085-4572-9ddd-64d810cff52a{fill:#f2ebd9;}.b94328b5-d67d-4929-b811-40e78543da41{fill:#082947;}</style></defs><title>icone-noticias</title><path class="770fbded-78ff-4ff6-a54f-c34735946b3f" d="M134,183.6v-10H60v60h74v-26a6,6,0,0,1,6-6v-12a6,6,0,0,1-6-6h0Zm0,0"/><path class="748c915a-fb4e-4299-96aa-9ba37fa6b560" d="M260.8,67.2h46.71L260.8,20.49V67.2Zm0,0"/><path class="8a4e515c-e147-4ea8-9957-66e07479f5e0" d="M346,308H322a6,6,0,0,1-6-6V79.2H254.8a6,6,0,0,1-6-6V12H12V302a18,18,0,0,0,18,18H346a18,18,0,0,0,18-18H352a6,6,0,0,1-6,6h0ZM118.36,90.83l21-16a6,6,0,0,1,7.27,0L164,88.06l17.37-13.23a6,6,0,0,1,7.27,0l21,16a6,6,0,0,1-7.27,9.55L185,87.15l-17.37,13.23a6,6,0,0,1-7.27,0L143,87.15l-17.36,13.23a6,6,0,0,1-7.27-9.55h0ZM140,281.6H54a6,6,0,0,1,0-12h86a6,6,0,1,1,0,12h0Zm6-98a6,6,0,0,1-6,6v12a6,6,0,0,1,6,6v32a6,6,0,0,1-6,6H54a6,6,0,0,1-6-6v-72a6,6,0,0,1,6-6h86a6,6,0,0,1,6,6v16Zm128,98H188a6,6,0,0,1,0-12h86a6,6,0,0,1,0,12h0Zm0-36H188a6,6,0,0,1,0-12h86a6,6,0,0,1,0,12h0Zm0-36H188a6,6,0,0,1,0-12h86a6,6,0,0,1,0,12h0Zm0-36H188a6,6,0,0,1,0-12h86a6,6,0,0,1,0,12h0Zm0-36H54a6,6,0,0,1,0-12H274a6,6,0,1,1,0,12h0Zm0,0"/><path class="63a8cc51-7085-4572-9ddd-64d810cff52a" d="M326.33,69.05c0.11,0.11.21,0.22,0.3,0.34l0.1,0.13L327,69.87,327.05,70c0.08,0.13.16,0.26,0.23,0.4l0,0.07c0.08,0.15.15,0.3,0.22,0.46l0,0c0.07,0.17.13,0.34,0.18,0.51l0,0.05c0,0.17.09,0.34,0.13,0.51s0,0.1,0,.15,0.05,0.29.07,0.43,0,0.4,0,.6V296h18a6,6,0,0,1,6,6h12V44H320.74a6,6,0,0,1-6-6H295.29l31,31,0.09,0.1h0Zm0,0"/><path class="b94328b5-d67d-4929-b811-40e78543da41" d="M125.64,100.38L143,87.15l17.36,13.23a6,6,0,0,0,7.27,0L185,87.15l17.36,13.23a6,6,0,0,0,7.27-9.55l-21-16a6,6,0,0,0-7.27,0L164,88.06,146.63,74.83a6,6,0,0,0-7.27,0l-21,16a6,6,0,1,0,7.27,9.55h0Zm0,0"/><path class="b94328b5-d67d-4929-b811-40e78543da41" d="M370,32H320.74a6,6,0,0,0,0,12H364V302a18,18,0,0,1-18,18H30a18,18,0,0,1-18-18V12H248.8V73.2a6,6,0,0,0,6,6H316V302a6,6,0,0,0,6,6h24a6,6,0,0,0,0-12H328V73.2c0-.2,0-0.4,0-0.6s0-.29-0.06-0.43,0-.1,0-0.15-0.08-.34-0.13-0.51l0-.05c0-.17-0.11-0.34-0.18-0.51l0,0c-0.07-.16-0.14-0.31-0.22-0.46l0-.07c-0.07-.14-0.15-0.27-0.23-0.4L327,69.87l-0.25-.34-0.1-.13-0.3-.34-0.09-.1L259,1.76l-0.1-.09c-0.11-.1-0.22-0.21-0.34-0.3l-0.13-.1L258.14,1,258,0.95l-0.39-.23-0.07,0c-0.15-.08-0.3-0.15-0.46-0.22l0,0a5.06,5.06,0,0,0-.51-0.18l-0.05,0L256,0.12l-0.14,0L255.4,0a5.84,5.84,0,0,0-.6,0H6A6,6,0,0,0,0,6V302a30,30,0,0,0,30,30H346a30,30,0,0,0,30-30V38a6,6,0,0,0-6-6h0ZM260.8,67.2V20.49L307.52,67.2H260.8Zm0,0"/><path class="b94328b5-d67d-4929-b811-40e78543da41" d="M140,269.6H54a6,6,0,0,0,0,12h86a6,6,0,1,0,0-12h0Zm0,0"/><path class="b94328b5-d67d-4929-b811-40e78543da41" d="M274,269.6H188a6,6,0,0,0,0,12h86a6,6,0,0,0,0-12h0Zm0,0"/><path class="b94328b5-d67d-4929-b811-40e78543da41" d="M274,233.6H188a6,6,0,0,0,0,12h86a6,6,0,0,0,0-12h0Zm0,0"/><path class="b94328b5-d67d-4929-b811-40e78543da41" d="M274,197.6H188a6,6,0,0,0,0,12h86a6,6,0,0,0,0-12h0Zm0,0"/><path class="b94328b5-d67d-4929-b811-40e78543da41" d="M140,161.6H54a6,6,0,0,0-6,6v72a6,6,0,0,0,6,6h86a6,6,0,0,0,6-6v-32a6,6,0,0,0-12,0v26H60v-60h74v10a6,6,0,0,0,12,0v-16a6,6,0,0,0-6-6h0Zm0,0"/><path class="b94328b5-d67d-4929-b811-40e78543da41" d="M274,161.6H188a6,6,0,0,0,0,12h86a6,6,0,0,0,0-12h0Zm0,0"/><path class="b94328b5-d67d-4929-b811-40e78543da41" d="M274,125.6H54a6,6,0,0,0,0,12H274a6,6,0,1,0,0-12h0Zm0,0"/></svg>