<svg id="8f1a85d0-15f6-498a-9b99-1a4354d3157f" data-name="Camada 1" xmlns="http://www.w3.org/2000/svg" viewBox="0 0 192 296"><defs><style>.fef3f23e-bb34-4872-9960-9854ee7694bb{fill:#dedde0;}.\30 e07f4b7-4b22-43d5-8a6e-bc09771471fc{fill:#ff5023;}.\37 57558c2-78c6-4de8-8349-baeb51c90bf6{fill:#bf3c1a;}.cc413820-d157-499d-894f-43185a8a8b27{fill:#fff;}</style></defs><title>icone-localizacao</title><path class="fef3f23e-bb34-4872-9960-9854ee7694bb" d="M136,216h-1.77A430.47,430.47,0,0,1,96,256a430.47,430.47,0,0,1-38.23-40H56a40,40,0,1,0,0,80h80a40,40,0,1,0,0-80h0Zm0,0"/><path class="0e07f4b7-4b22-43d5-8a6e-bc09771471fc" d="M96,256V128a32,32,0,1,1,0-64V0A96,96,0,0,0,0,96c0,42.43,31,88.3,57.77,120A430.47,430.47,0,0,0,96,256h0Zm0,0"/><path class="757558c2-78c6-4de8-8349-baeb51c90bf6" d="M128,96a32,32,0,0,1-32,32V256a430.47,430.47,0,0,0,38.23-40C161,184.3,192,138.43,192,96A96,96,0,0,0,96,0V64a32,32,0,0,1,32,32h0Zm0,0"/><path class="cc413820-d157-499d-894f-43185a8a8b27" d="M128,96A32,32,0,1,1,96,64a32,32,0,0,1,32,32h0Zm0,0"/></svg>