<svg id="308ae2b8-3527-4e5a-93e6-4b4f8a86bfc0" data-name="Camada 1" xmlns="http://www.w3.org/2000/svg" viewBox="0 0 409.6 393.6"><defs><style>.\31 a67be75-e87a-4f4b-8a08-fe841392de2c{fill:#d8dce1;}.\33 84a598c-231f-41df-951c-573d2722ede4{fill:#ff4f19;}.c79e97f1-fdd7-412e-a26b-181aaab3b923{fill:#fff;}.dbe15396-fbe3-439d-be0f-1bf7550cc77c{fill:#5c546a;}.\35 a1f7118-81de-4038-ab5e-31af9d0e1994{fill:#ffd200;}.\31 8e89bbc-8d9b-4840-b772-122ef2fa7f4d{fill:#ff9600;}</style></defs><title>icone-eventos</title><path class="1a67be75-e87a-4f4b-8a08-fe841392de2c" d="M0,99.2V361.6a32,32,0,0,0,32,32H377.6a32,32,0,0,0,32-32V99.2H0Zm0,0"/><path class="384a598c-231f-41df-951c-573d2722ede4" d="M377.6,9.6H32a32,32,0,0,0-32,32V99.2H409.6V41.6a32,32,0,0,0-32-32h0ZM51.2,73.6A19.2,19.2,0,1,1,70.4,54.4,19.2,19.2,0,0,1,51.2,73.6h0Zm307.2,0a19.2,19.2,0,1,1,19.2-19.2,19.2,19.2,0,0,1-19.2,19.2h0Zm0,0"/><path class="c79e97f1-fdd7-412e-a26b-181aaab3b923" d="M204.8,156.8a25.6,25.6,0,1,0,25.6,25.6,25.62,25.62,0,0,0-25.6-25.6h0Zm0,0"/><path class="c79e97f1-fdd7-412e-a26b-181aaab3b923" d="M140.8,156.8a25.6,25.6,0,1,0,25.6,25.6,25.62,25.62,0,0,0-25.6-25.6h0Zm0,0"/><path class="c79e97f1-fdd7-412e-a26b-181aaab3b923" d="M76.8,156.8a25.6,25.6,0,1,0,25.6,25.6,25.62,25.62,0,0,0-25.6-25.6h0Zm0,0"/><path class="c79e97f1-fdd7-412e-a26b-181aaab3b923" d="M268.8,156.8a25.6,25.6,0,1,0,25.6,25.6,25.62,25.62,0,0,0-25.6-25.6h0Zm0,0"/><path class="c79e97f1-fdd7-412e-a26b-181aaab3b923" d="M332.8,208a25.6,25.6,0,1,0-25.6-25.6A25.62,25.62,0,0,0,332.8,208h0Zm0,0"/><path class="c79e97f1-fdd7-412e-a26b-181aaab3b923" d="M204.8,220.8a25.6,25.6,0,1,0,25.6,25.6,25.62,25.62,0,0,0-25.6-25.6h0Zm0,0"/><path class="c79e97f1-fdd7-412e-a26b-181aaab3b923" d="M140.8,220.8a25.6,25.6,0,1,0,25.6,25.6,25.62,25.62,0,0,0-25.6-25.6h0Zm0,0"/><path class="c79e97f1-fdd7-412e-a26b-181aaab3b923" d="M76.8,220.8a25.6,25.6,0,1,0,25.6,25.6,25.62,25.62,0,0,0-25.6-25.6h0Zm0,0"/><path class="c79e97f1-fdd7-412e-a26b-181aaab3b923" d="M268.8,220.8a25.6,25.6,0,1,0,25.6,25.6,25.62,25.62,0,0,0-25.6-25.6h0Zm0,0"/><path class="c79e97f1-fdd7-412e-a26b-181aaab3b923" d="M332.8,220.8a25.6,25.6,0,1,0,25.6,25.6,25.62,25.62,0,0,0-25.6-25.6h0Zm0,0"/><path class="c79e97f1-fdd7-412e-a26b-181aaab3b923" d="M204.8,284.8a25.6,25.6,0,1,0,25.6,25.6,25.62,25.62,0,0,0-25.6-25.6h0Zm0,0"/><path class="c79e97f1-fdd7-412e-a26b-181aaab3b923" d="M140.8,284.8a25.6,25.6,0,1,0,25.6,25.6,25.62,25.62,0,0,0-25.6-25.6h0Zm0,0"/><path class="c79e97f1-fdd7-412e-a26b-181aaab3b923" d="M76.8,284.8a25.6,25.6,0,1,0,25.6,25.6,25.62,25.62,0,0,0-25.6-25.6h0Zm0,0"/><path class="c79e97f1-fdd7-412e-a26b-181aaab3b923" d="M268.8,284.8a25.6,25.6,0,1,0,25.6,25.6,25.62,25.62,0,0,0-25.6-25.6h0Zm0,0"/><path class="c79e97f1-fdd7-412e-a26b-181aaab3b923" d="M332.8,284.8a25.6,25.6,0,1,0,25.6,25.6,25.62,25.62,0,0,0-25.6-25.6h0Zm0,0"/><path class="dbe15396-fbe3-439d-be0f-1bf7550cc77c" d="M51.2,64a9.6,9.6,0,0,1-9.6-9.6V9.6a9.6,9.6,0,1,1,19.2,0V54.4A9.6,9.6,0,0,1,51.2,64h0Zm0,0"/><path class="dbe15396-fbe3-439d-be0f-1bf7550cc77c" d="M358.4,64a9.6,9.6,0,0,1-9.6-9.6V9.6a9.6,9.6,0,1,1,19.2,0V54.4a9.6,9.6,0,0,1-9.6,9.6h0Zm0,0"/><path class="5a1f7118-81de-4038-ab5e-31af9d0e1994" d="M102.4,182.4a25.6,25.6,0,1,1-25.6-25.6,25.6,25.6,0,0,1,25.6,25.6h0Zm0,0"/><path class="18e89bbc-8d9b-4840-b772-122ef2fa7f4d" d="M230.4,310.4a25.6,25.6,0,1,1-25.6-25.6,25.6,25.6,0,0,1,25.6,25.6h0Zm0,0"/><path class="384a598c-231f-41df-951c-573d2722ede4" d="M294.4,246.4a25.6,25.6,0,1,1-25.6-25.6,25.6,25.6,0,0,1,25.6,25.6h0Zm0,0"/></svg>